<svg id="Group_1483" data-name="Group 1483" xmlns="http://www.w3.org/2000/svg" xmlns:xlink="http://www.w3.org/1999/xlink" width="20.446" height="20.279" viewBox="0 0 20.446 20.279">
  <defs>
    <clipPath id="clip-path">
      <rect id="Rectangle_1045" data-name="Rectangle 1045" width="20.446" height="20.279" fill="#fff"/>
    </clipPath>
  </defs>
  <g id="Group_1483-2" data-name="Group 1483" clip-path="url(#clip-path)">
    <path id="Path_7789" data-name="Path 7789" d="M10.227,0A10.212,10.212,0,0,0,8.5,20.279V17.114H8.309a3.144,3.144,0,0,1-2.078-.668,2.739,2.739,0,0,1-.717-1.167c-.1-.281-.152-.391-.256-.468a.97.97,0,0,0-.644-.111.87.87,0,0,1-.163-1.731,2.576,2.576,0,0,1,1.842.447,2.483,2.483,0,0,1,.842,1.25,1.26,1.26,0,0,0,.26.492,1.752,1.752,0,0,0,1.139.208,2.459,2.459,0,0,1,.184-.765,2.867,2.867,0,0,1,1.039-1.261c-2.625-.291-3.858-1.565-3.858-3.3a3.193,3.193,0,0,1,.873-2.078c-.173-.6-.405-1.842.076-2.324a2.77,2.77,0,0,1,2.036.949,5.943,5.943,0,0,1,1.863-.357,5.843,5.843,0,0,1,1.877.312A2.77,2.77,0,0,1,14.66,5.6c.464.464.249,1.731.055,2.324a3.117,3.117,0,0,1,.88,2.123c0,1.731-1.222,3.023-3.809,3.293A2.7,2.7,0,0,1,13,15.524v4.523A10.216,10.216,0,0,0,10.227,0" transform="translate(-0.001 0)" fill="#fff"/>
  </g>
</svg>
