<svg xmlns="http://www.w3.org/2000/svg" width="19.491" height="19.491" viewBox="0 0 19.491 19.491">
  <path id="instagram" d="M9.745,0C7.1,0,6.767.012,5.728.058A7.186,7.186,0,0,0,3.362.512,4.772,4.772,0,0,0,1.636,1.636,4.755,4.755,0,0,0,.512,3.362,7.165,7.165,0,0,0,.058,5.728C.01,6.767,0,7.1,0,9.745s.012,2.978.058,4.018a7.19,7.19,0,0,0,.453,2.366,4.779,4.779,0,0,0,1.124,1.727,4.766,4.766,0,0,0,1.727,1.124,7.2,7.2,0,0,0,2.366.453c1.04.049,1.37.058,4.018.058s2.978-.012,4.018-.058a7.211,7.211,0,0,0,2.366-.453,4.98,4.98,0,0,0,2.851-2.851,7.19,7.19,0,0,0,.453-2.366c.049-1.04.058-1.37.058-4.018s-.012-2.978-.058-4.018a7.207,7.207,0,0,0-.453-2.366,4.783,4.783,0,0,0-1.124-1.727A4.748,4.748,0,0,0,16.129.512,7.169,7.169,0,0,0,13.763.058C12.723.01,12.393,0,9.745,0Zm0,1.754c2.6,0,2.911.013,3.939.058a5.369,5.369,0,0,1,1.809.337A3.207,3.207,0,0,1,17.343,4a5.381,5.381,0,0,1,.335,1.809c.046,1.028.057,1.337.057,3.939s-.012,2.911-.06,3.939a5.484,5.484,0,0,1-.342,1.809,3.094,3.094,0,0,1-.73,1.122,3.04,3.04,0,0,1-1.121.728,5.42,5.42,0,0,1-1.815.335c-1.035.046-1.339.057-3.946.057s-2.912-.012-3.946-.06a5.526,5.526,0,0,1-1.816-.342,3.018,3.018,0,0,1-1.12-.73,2.959,2.959,0,0,1-.731-1.121,5.531,5.531,0,0,1-.341-1.815c-.037-1.023-.05-1.339-.05-3.934s.013-2.912.05-3.948a5.524,5.524,0,0,1,.341-1.814A2.889,2.889,0,0,1,2.839,2.85a2.882,2.882,0,0,1,1.12-.729,5.394,5.394,0,0,1,1.8-.342C6.8,1.742,7.1,1.73,9.709,1.73l.037.024Zm0,2.987a5,5,0,1,0,5,5A5,5,0,0,0,9.745,4.741Zm0,8.253a3.248,3.248,0,1,1,3.248-3.248A3.248,3.248,0,0,1,9.745,12.994Zm6.372-8.45a1.169,1.169,0,1,1-1.169-1.169A1.17,1.17,0,0,1,16.117,4.544Z" fill="#fff"/>
</svg>
