<svg xmlns="http://www.w3.org/2000/svg" xmlns:xlink="http://www.w3.org/1999/xlink" width="20.446" height="20.446" viewBox="0 0 20.446 20.446">
  <defs>
    <clipPath id="clip-path">
      <rect id="Rectangle_999" data-name="Rectangle 999" width="20.446" height="20.446" fill="#fff"/>
    </clipPath>
  </defs>
  <g id="Group_1441" data-name="Group 1441" clip-path="url(#clip-path)">
    <path id="Path_7406" data-name="Path 7406" d="M16.236,0H4.21A4.21,4.21,0,0,0,0,4.21V16.236a4.21,4.21,0,0,0,4.21,4.21H16.236a4.21,4.21,0,0,0,4.21-4.21V4.21A4.21,4.21,0,0,0,16.236,0M7.085,15.893H4.692V8.264H7.085Zm-1.2-8.618A1.387,1.387,0,1,1,7.275,5.888,1.387,1.387,0,0,1,5.888,7.275m10.057,8.67H13.552V11.5A1.269,1.269,0,0,0,12.2,10.188a1.168,1.168,0,0,0-1.064.6,3.115,3.115,0,0,0-.219,1.541V15.91H8.524V8.281h2.289V9.3a1.68,1.68,0,0,1,.1-.149,2.791,2.791,0,0,1,2.358-1.08q.142.006.277.021a2.563,2.563,0,0,1,2.393,2.875Z" fill="#fff"/>
  </g>
</svg>
