<svg xmlns="http://www.w3.org/2000/svg" width="23" height="22" viewBox="0 0 23 22"><g><g clip-path="url(#clip-12a4a8ed-2100-4dbd-8b7e-66e66355f241)"><path fill="#3c3181" d="M21.854 16.279l-4.995-1.583a1.18 1.18 0 0 0-1.194.291l-1.788 1.789a.472.472 0 0 1-.571.076c-.704-.405-2.348-1.406-4.238-3.296-1.89-1.889-2.89-3.534-3.295-4.238a.47.47 0 0 1 .074-.569l1.69-1.69c.375-.374.508-.925.348-1.43L6.345.77a1.42 1.42 0 0 0-1.353-.99H3.846C2.769-.207.132 3.027.132 5.137c0 1.27.43 5.844 5.968 11.382 5.542 5.542 10.116 5.972 11.386 5.972 2.11 0 5.344-2.636 5.358-3.72v-1.14c0-.619-.4-1.166-.99-1.353"/></g></g></svg>